<svg width="330" height="96" viewBox="0 0 330 96" fill="none" xmlns="http://www.w3.org/2000/svg">
<path d="M95.8693 39V9.90909H106.778C109.013 9.90909 110.888 10.2973 112.403 11.0739C113.928 11.8504 115.079 12.9394 115.855 14.3409C116.641 15.733 117.034 17.357 117.034 19.2131C117.034 21.0786 116.636 22.6979 115.841 24.071C115.055 25.4347 113.895 26.4905 112.361 27.2386C110.827 27.9773 108.942 28.3466 106.707 28.3466H98.9375V23.9716H105.997C107.304 23.9716 108.374 23.7917 109.207 23.4318C110.041 23.0625 110.656 22.5275 111.054 21.8267C111.461 21.1165 111.665 20.2453 111.665 19.2131C111.665 18.1809 111.461 17.3002 111.054 16.571C110.647 15.8324 110.027 15.2737 109.193 14.8949C108.36 14.5066 107.285 14.3125 105.969 14.3125H101.139V39H95.8693ZM110.898 25.8182L118.099 39H112.219L105.145 25.8182H110.898ZM135.564 29.8239V17.1818H140.706V39H135.72V35.1222H135.493C135 36.3437 134.191 37.3428 133.064 38.1193C131.946 38.8958 130.569 39.2841 128.93 39.2841C127.5 39.2841 126.236 38.9669 125.138 38.3324C124.049 37.6884 123.196 36.7557 122.581 35.5341C121.965 34.303 121.658 32.8163 121.658 31.0739V17.1818H126.8V30.2784C126.8 31.661 127.179 32.7595 127.936 33.5739C128.694 34.3883 129.688 34.7955 130.919 34.7955C131.677 34.7955 132.411 34.6108 133.121 34.2415C133.831 33.8722 134.413 33.3229 134.868 32.5938C135.332 31.8551 135.564 30.9318 135.564 29.8239ZM163.238 22.9489L158.55 23.4602C158.418 22.9867 158.186 22.5417 157.854 22.125C157.532 21.7083 157.097 21.3722 156.548 21.1165C155.998 20.8608 155.326 20.733 154.531 20.733C153.46 20.733 152.561 20.965 151.832 21.429C151.112 21.893 150.757 22.4943 150.766 23.233C150.757 23.8674 150.989 24.3835 151.462 24.7812C151.945 25.179 152.741 25.5057 153.849 25.7614L157.57 26.5568C159.635 27.0019 161.169 27.7074 162.173 28.6733C163.186 29.6392 163.697 30.9034 163.707 32.4659C163.697 33.839 163.295 35.0511 162.499 36.1023C161.713 37.1439 160.62 37.9583 159.218 38.5455C157.817 39.1326 156.207 39.4261 154.388 39.4261C151.718 39.4261 149.568 38.8674 147.94 37.75C146.311 36.6231 145.34 35.0559 145.028 33.0483L150.042 32.5653C150.269 33.5502 150.752 34.2936 151.491 34.7955C152.229 35.2973 153.191 35.5483 154.374 35.5483C155.596 35.5483 156.576 35.2973 157.315 34.7955C158.063 34.2936 158.437 33.6733 158.437 32.9347C158.437 32.3097 158.195 31.7936 157.712 31.3864C157.239 30.9792 156.5 30.6667 155.496 30.4489L151.775 29.6676C149.682 29.232 148.134 28.4981 147.13 27.4659C146.126 26.4242 145.629 25.108 145.638 23.517C145.629 22.1723 145.994 21.0076 146.732 20.0227C147.48 19.0284 148.517 18.2614 149.843 17.7216C151.178 17.1723 152.717 16.8977 154.46 16.8977C157.016 16.8977 159.029 17.4422 160.496 18.5312C161.974 19.6203 162.888 21.0928 163.238 22.9489ZM178.842 17.1818V21.1591H166.299V17.1818H178.842ZM169.396 11.9545H174.538V32.4375C174.538 33.1288 174.642 33.6591 174.85 34.0284C175.068 34.3883 175.352 34.6345 175.702 34.767C176.053 34.8996 176.441 34.9659 176.867 34.9659C177.189 34.9659 177.483 34.9422 177.748 34.8949C178.022 34.8475 178.231 34.8049 178.373 34.767L179.239 38.7869C178.965 38.8816 178.572 38.9858 178.06 39.0994C177.558 39.2131 176.943 39.2794 176.214 39.2983C174.926 39.3362 173.766 39.142 172.734 38.7159C171.701 38.2803 170.882 37.608 170.276 36.6989C169.68 35.7898 169.386 34.6534 169.396 33.2898V11.9545Z" fill="black"/>
<path d="M98.7273 70H94.2912V56.9091H98.8168C100.116 56.9091 101.233 57.1712 102.166 57.6953C103.104 58.2152 103.824 58.9631 104.327 59.9389C104.83 60.9148 105.081 62.0824 105.081 63.4418C105.081 64.8054 104.827 65.9773 104.32 66.9574C103.817 67.9375 103.091 68.6896 102.141 69.2138C101.195 69.7379 100.057 70 98.7273 70ZM96.6626 67.9482H98.6122C99.5241 67.9482 100.285 67.782 100.894 67.4496C101.504 67.1129 101.962 66.6122 102.268 65.9474C102.575 65.2784 102.729 64.4432 102.729 63.4418C102.729 62.4403 102.575 61.6094 102.268 60.9489C101.962 60.2841 101.508 59.7876 100.907 59.4595C100.31 59.1271 99.5689 58.9609 98.6825 58.9609H96.6626V67.9482ZM110.057 70.1982C109.435 70.1982 108.875 70.0874 108.376 69.8658C107.882 69.6399 107.49 69.3075 107.2 68.8686C106.914 68.4297 106.772 67.8885 106.772 67.245C106.772 66.6911 106.874 66.233 107.078 65.8707C107.283 65.5085 107.562 65.2188 107.916 65.0014C108.27 64.7841 108.668 64.62 109.111 64.5092C109.559 64.3942 110.021 64.3111 110.498 64.2599C111.074 64.2003 111.54 64.147 111.898 64.1001C112.256 64.049 112.516 63.9723 112.678 63.87C112.844 63.7635 112.927 63.5994 112.927 63.3778V63.3395C112.927 62.858 112.784 62.4851 112.499 62.2209C112.213 61.9567 111.802 61.8246 111.265 61.8246C110.699 61.8246 110.249 61.9482 109.917 62.1953C109.588 62.4425 109.367 62.7344 109.252 63.071L107.091 62.7642C107.262 62.1676 107.543 61.669 107.935 61.2685C108.327 60.8636 108.806 60.5611 109.373 60.3608C109.94 60.1562 110.566 60.054 111.252 60.054C111.725 60.054 112.196 60.1094 112.665 60.2202C113.134 60.331 113.562 60.5142 113.95 60.7699C114.338 61.0213 114.649 61.3643 114.883 61.799C115.122 62.2337 115.241 62.777 115.241 63.429V70H113.017V68.6513H112.94C112.799 68.924 112.601 69.1797 112.346 69.4183C112.094 69.6527 111.777 69.8423 111.393 69.9872C111.014 70.1278 110.569 70.1982 110.057 70.1982ZM110.658 68.4979C111.123 68.4979 111.525 68.4062 111.866 68.223C112.207 68.0355 112.469 67.7884 112.652 67.4815C112.84 67.1747 112.934 66.8402 112.934 66.478V65.321C112.861 65.3807 112.738 65.4361 112.563 65.4872C112.392 65.5384 112.201 65.5831 111.988 65.6214C111.775 65.6598 111.564 65.6939 111.355 65.7237C111.146 65.7536 110.965 65.7791 110.811 65.8004C110.466 65.8473 110.157 65.924 109.885 66.0305C109.612 66.1371 109.397 66.2862 109.239 66.478C109.081 66.6655 109.002 66.9084 109.002 67.2067C109.002 67.6328 109.158 67.9545 109.469 68.1719C109.78 68.3892 110.176 68.4979 110.658 68.4979ZM122.471 60.1818V61.9716H116.826V60.1818H122.471ZM118.22 57.8295H120.534V67.0469C120.534 67.358 120.581 67.5966 120.674 67.7628C120.772 67.9247 120.9 68.0355 121.058 68.0952C121.216 68.1548 121.39 68.1847 121.582 68.1847C121.727 68.1847 121.859 68.174 121.978 68.1527C122.102 68.1314 122.196 68.1122 122.26 68.0952L122.65 69.9041C122.526 69.9467 122.349 69.9936 122.119 70.0447C121.893 70.0959 121.616 70.1257 121.288 70.1342C120.708 70.1513 120.186 70.0639 119.722 69.8722C119.257 69.6761 118.889 69.3736 118.616 68.9645C118.348 68.5554 118.216 68.044 118.22 67.4304V57.8295ZM127.231 70.1982C126.609 70.1982 126.048 70.0874 125.55 69.8658C125.056 69.6399 124.664 69.3075 124.374 68.8686C124.088 68.4297 123.945 67.8885 123.945 67.245C123.945 66.6911 124.048 66.233 124.252 65.8707C124.457 65.5085 124.736 65.2188 125.09 65.0014C125.443 64.7841 125.842 64.62 126.285 64.5092C126.732 64.3942 127.195 64.3111 127.672 64.2599C128.247 64.2003 128.714 64.147 129.072 64.1001C129.43 64.049 129.69 63.9723 129.852 63.87C130.018 63.7635 130.101 63.5994 130.101 63.3778V63.3395C130.101 62.858 129.958 62.4851 129.673 62.2209C129.387 61.9567 128.976 61.8246 128.439 61.8246C127.872 61.8246 127.423 61.9482 127.09 62.1953C126.762 62.4425 126.541 62.7344 126.426 63.071L124.265 62.7642C124.436 62.1676 124.717 61.669 125.109 61.2685C125.501 60.8636 125.98 60.5611 126.547 60.3608C127.114 60.1562 127.74 60.054 128.426 60.054C128.899 60.054 129.37 60.1094 129.839 60.2202C130.308 60.331 130.736 60.5142 131.124 60.7699C131.512 61.0213 131.823 61.3643 132.057 61.799C132.296 62.2337 132.415 62.777 132.415 63.429V70H130.191V68.6513H130.114C129.973 68.924 129.775 69.1797 129.519 69.4183C129.268 69.6527 128.95 69.8423 128.567 69.9872C128.188 70.1278 127.742 70.1982 127.231 70.1982ZM127.832 68.4979C128.296 68.4979 128.699 68.4062 129.04 68.223C129.381 68.0355 129.643 67.7884 129.826 67.4815C130.014 67.1747 130.107 66.8402 130.107 66.478V65.321C130.035 65.3807 129.911 65.4361 129.737 65.4872C129.566 65.5384 129.374 65.5831 129.161 65.6214C128.948 65.6598 128.737 65.6939 128.529 65.7237C128.32 65.7536 128.139 65.7791 127.985 65.8004C127.64 65.8473 127.331 65.924 127.058 66.0305C126.786 66.1371 126.57 66.2862 126.413 66.478C126.255 66.6655 126.176 66.9084 126.176 67.2067C126.176 67.6328 126.332 67.9545 126.643 68.1719C126.954 68.3892 127.35 68.4979 127.832 68.4979ZM139.309 70V56.9091H144.218C145.224 56.9091 146.067 57.0966 146.749 57.4716C147.435 57.8466 147.953 58.3622 148.302 59.0185C148.656 59.6705 148.833 60.4119 148.833 61.2429C148.833 62.0824 148.656 62.8281 148.302 63.4801C147.949 64.1321 147.427 64.6456 146.736 65.0206C146.046 65.3913 145.196 65.5767 144.186 65.5767H140.932V63.6271H143.866C144.454 63.6271 144.936 63.5249 145.311 63.3203C145.686 63.1158 145.963 62.8345 146.142 62.4766C146.325 62.1186 146.417 61.7074 146.417 61.2429C146.417 60.7784 146.325 60.3693 146.142 60.0156C145.963 59.6619 145.684 59.3871 145.305 59.1911C144.93 58.9908 144.446 58.8906 143.854 58.8906H141.68V70H139.309ZM153.104 56.9091V70H150.79V56.9091H153.104ZM158.309 70.1982C157.687 70.1982 157.127 70.0874 156.628 69.8658C156.134 69.6399 155.742 69.3075 155.452 68.8686C155.166 68.4297 155.024 67.8885 155.024 67.245C155.024 66.6911 155.126 66.233 155.33 65.8707C155.535 65.5085 155.814 65.2188 156.168 65.0014C156.521 64.7841 156.92 64.62 157.363 64.5092C157.811 64.3942 158.273 64.3111 158.75 64.2599C159.325 64.2003 159.792 64.147 160.15 64.1001C160.508 64.049 160.768 63.9723 160.93 63.87C161.096 63.7635 161.179 63.5994 161.179 63.3778V63.3395C161.179 62.858 161.036 62.4851 160.751 62.2209C160.465 61.9567 160.054 61.8246 159.517 61.8246C158.95 61.8246 158.501 61.9482 158.169 62.1953C157.84 62.4425 157.619 62.7344 157.504 63.071L155.343 62.7642C155.514 62.1676 155.795 61.669 156.187 61.2685C156.579 60.8636 157.058 60.5611 157.625 60.3608C158.192 60.1562 158.818 60.054 159.504 60.054C159.977 60.054 160.448 60.1094 160.917 60.2202C161.386 60.331 161.814 60.5142 162.202 60.7699C162.59 61.0213 162.901 61.3643 163.135 61.799C163.374 62.2337 163.493 62.777 163.493 63.429V70H161.269V68.6513H161.192C161.051 68.924 160.853 69.1797 160.597 69.4183C160.346 69.6527 160.029 69.8423 159.645 69.9872C159.266 70.1278 158.82 70.1982 158.309 70.1982ZM158.91 68.4979C159.374 68.4979 159.777 68.4062 160.118 68.223C160.459 68.0355 160.721 67.7884 160.904 67.4815C161.092 67.1747 161.186 66.8402 161.186 66.478V65.321C161.113 65.3807 160.99 65.4361 160.815 65.4872C160.644 65.5384 160.453 65.5831 160.24 65.6214C160.026 65.6598 159.816 65.6939 159.607 65.7237C159.398 65.7536 159.217 65.7791 159.063 65.8004C158.718 65.8473 158.409 65.924 158.137 66.0305C157.864 66.1371 157.649 66.2862 157.491 66.478C157.333 66.6655 157.254 66.9084 157.254 67.2067C157.254 67.6328 157.41 67.9545 157.721 68.1719C158.032 68.3892 158.428 68.4979 158.91 68.4979ZM168.134 64.2472V70H165.82V60.1818H168.031V61.8501H168.146C168.372 61.3004 168.732 60.8636 169.227 60.5398C169.725 60.2159 170.341 60.054 171.074 60.054C171.752 60.054 172.342 60.1989 172.845 60.4886C173.352 60.7784 173.744 61.1982 174.021 61.7479C174.302 62.2976 174.441 62.9645 174.436 63.7486V70H172.122V64.1065C172.122 63.4503 171.952 62.9368 171.611 62.5661C171.274 62.1953 170.808 62.0099 170.211 62.0099C169.806 62.0099 169.446 62.0994 169.131 62.2784C168.82 62.4531 168.575 62.7067 168.396 63.0391C168.221 63.3714 168.134 63.7741 168.134 64.2472ZM181.135 70.1918C180.151 70.1918 179.301 69.9872 178.585 69.5781C177.873 69.1648 177.325 68.581 176.942 67.8267C176.558 67.0682 176.367 66.1754 176.367 65.1484C176.367 64.1385 176.558 63.2521 176.942 62.4893C177.33 61.7223 177.871 61.1257 178.566 60.6996C179.26 60.2692 180.076 60.054 181.014 60.054C181.619 60.054 182.19 60.152 182.727 60.348C183.268 60.5398 183.745 60.8381 184.159 61.2429C184.576 61.6477 184.904 62.1634 185.143 62.7898C185.382 63.4119 185.501 64.1534 185.501 65.0142V65.7237H177.453V64.1641H183.283C183.279 63.7209 183.183 63.3267 182.995 62.9815C182.808 62.6321 182.546 62.3572 182.209 62.157C181.877 61.9567 181.489 61.8565 181.046 61.8565C180.573 61.8565 180.157 61.9716 179.799 62.2017C179.441 62.4276 179.162 62.7259 178.962 63.0966C178.766 63.4631 178.666 63.8658 178.661 64.3047V65.6662C178.661 66.2372 178.766 66.7273 178.975 67.1364C179.183 67.5412 179.475 67.8523 179.85 68.0696C180.225 68.2827 180.664 68.3892 181.167 68.3892C181.504 68.3892 181.808 68.3423 182.081 68.2486C182.354 68.1506 182.59 68.0078 182.791 67.8203C182.991 67.6328 183.142 67.4006 183.244 67.1236L185.405 67.3665C185.269 67.9375 185.009 68.4361 184.625 68.8622C184.246 69.2841 183.76 69.6122 183.168 69.8466C182.575 70.0767 181.898 70.1918 181.135 70.1918ZM101.406 82.5078C101.346 81.9496 101.094 81.5149 100.651 81.2038C100.212 80.8928 99.6413 80.7372 98.9382 80.7372C98.4439 80.7372 98.0199 80.8118 97.6662 80.9609C97.3125 81.1101 97.0419 81.3125 96.8544 81.5682C96.6669 81.8239 96.571 82.1158 96.5668 82.4439C96.5668 82.7166 96.6286 82.9531 96.7521 83.1534C96.88 83.3537 97.0526 83.5241 97.2699 83.6648C97.4872 83.8011 97.728 83.9162 97.9922 84.0099C98.2564 84.1037 98.5227 84.1825 98.7912 84.2464L100.018 84.5533C100.513 84.6683 100.988 84.8239 101.444 85.0199C101.904 85.2159 102.315 85.4631 102.678 85.7614C103.044 86.0597 103.334 86.4197 103.547 86.8416C103.76 87.2635 103.866 87.7578 103.866 88.3246C103.866 89.0916 103.67 89.767 103.278 90.3509C102.886 90.9304 102.32 91.3842 101.578 91.7124C100.841 92.0362 99.9482 92.1982 98.8999 92.1982C97.8814 92.1982 96.9972 92.0405 96.2472 91.7251C95.5014 91.4098 94.9176 90.9496 94.4957 90.3445C94.0781 89.7393 93.8523 89.0021 93.8182 88.1328H96.1513C96.1854 88.5888 96.326 88.968 96.5732 89.2706C96.8203 89.5732 97.142 89.799 97.5384 89.9482C97.9389 90.0973 98.3864 90.1719 98.8807 90.1719C99.3963 90.1719 99.848 90.0952 100.236 89.9418C100.628 89.7841 100.935 89.5668 101.156 89.2898C101.378 89.0085 101.491 88.6804 101.495 88.3054C101.491 87.9645 101.391 87.6832 101.195 87.4616C100.999 87.2358 100.724 87.0483 100.37 86.8991C100.021 86.7457 99.6115 86.6094 99.1428 86.4901L97.6534 86.1065C96.5753 85.8295 95.723 85.4098 95.0966 84.8473C94.4744 84.2805 94.1634 83.5284 94.1634 82.5909C94.1634 81.8196 94.3722 81.1442 94.7898 80.5646C95.2116 79.9851 95.7848 79.5355 96.5092 79.2159C97.2337 78.892 98.054 78.7301 98.9702 78.7301C99.8991 78.7301 100.713 78.892 101.412 79.2159C102.115 79.5355 102.667 79.9808 103.067 80.5518C103.468 81.1186 103.675 81.7706 103.688 82.5078H101.406ZM110.417 92H105.981V78.9091H110.506C111.806 78.9091 112.922 79.1712 113.856 79.6953C114.793 80.2152 115.513 80.9631 116.016 81.9389C116.519 82.9148 116.77 84.0824 116.77 85.4418C116.77 86.8054 116.517 87.9773 116.01 88.9574C115.507 89.9375 114.78 90.6896 113.83 91.2138C112.884 91.7379 111.746 92 110.417 92ZM108.352 89.9482H110.302C111.214 89.9482 111.974 89.782 112.584 89.4496C113.193 89.1129 113.651 88.6122 113.958 87.9474C114.265 87.2784 114.418 86.4432 114.418 85.4418C114.418 84.4403 114.265 83.6094 113.958 82.9489C113.651 82.2841 113.197 81.7876 112.596 81.4595C112 81.1271 111.258 80.9609 110.372 80.9609H108.352V89.9482ZM119.024 92V78.9091H121.395V84.924H121.555L126.662 78.9091H129.558L124.495 84.7834L129.602 92H126.752L122.846 86.3878L121.395 88.1009V92H119.024Z" fill="black"/>
<path d="M0 14C0 11.7909 1.79086 10 4 10H84V90C84 92.2091 82.2091 94 80 94H4C1.79086 94 0 92.2091 0 90V14Z" fill="#AE3821"/>
<path d="M0 38C0 35.7908 1.79086 34 4 34H60V90C60 92.2091 58.2091 94 56 94H4C1.79086 94 0 92.2091 0 90V38Z" fill="#D74326"/>
<path d="M0 64C0 61.7908 1.79086 60 4 60H34V90C34 92.2091 32.2091 94 30 94H4C1.79086 94 0 92.2091 0 90V64Z" fill="#F24C2B"/>
</svg>
